<?xml version="1.0" encoding="utf-8"?>
<!-- Generator: Adobe Illustrator 15.0.0, SVG Export Plug-In  -->
<!DOCTYPE svg PUBLIC "-//W3C//DTD SVG 1.1//EN" "http://www.w3.org/Graphics/SVG/1.1/DTD/svg11.dtd" [
	<!ENTITY ns_flows "http://ns.adobe.com/Flows/1.0/">
]>
<svg version="1.1"
	 xmlns="http://www.w3.org/2000/svg" xmlns:xlink="http://www.w3.org/1999/xlink" xmlns:a="http://ns.adobe.com/AdobeSVGViewerExtensions/3.0/"
	 x="0px" y="0px" width="436px" height="436px" viewBox="0 -1 436 436" enable-background="new 0 -1 436 436" xml:space="preserve">
<defs>
</defs>
<path fill="#F47920" d="M103,84.816l-70,36.398v43.48l70-36.395V84.816z"/>
<path fill="#F47920" d="M283,70.469L151,1.293v339.445l132,70.266V70.469z M264,325.16c0.063,2.43-1.164,4.707-3.227,5.992
	c-1.035,0.656-2.234,1.008-3.461,1.008c-1.125,0-2.23-0.277-3.223-0.805l-78.488-41.34c-2.27-1.227-3.656-3.617-3.602-6.195v-69.09
	c-0.07-2.422,1.152-4.703,3.207-5.992c2.035-1.262,4.594-1.34,6.699-0.199l78.492,41.34c2.27,1.227,3.656,3.617,3.602,6.195V325.16z
	 M263.473,190.246c-1.801,3.422-6.031,4.734-9.453,2.934l-78.559-41.34c-3.383-1.82-4.668-6.027-2.879-9.426
	s5.984-4.723,9.398-2.965l78.559,41.344C263.957,182.594,265.273,186.824,263.473,190.246z M263.473,131.027
	c-0.863,1.645-2.344,2.879-4.117,3.43s-3.695,0.371-5.336-0.492l-78.559-41.344c-3.422-1.801-4.734-6.031-2.934-9.453
	s6.031-4.734,9.453-2.938l78.559,41.344C263.961,123.375,265.273,127.605,263.473,131.027z"/>
<path fill="#F47920" d="M186,279.594l64,33.973v-53.266l-64-33.977V279.594z"/>
<path fill="#F47920" d="M137,1.227L0,70.895v340.652l137-70.77V1.227z M19,116.938c-0.121-2.578,1.242-4.996,3.508-6.227
	l84.633-43.582c2.129-1.129,4.699-1.031,6.734,0.258c2.039,1.285,3.23,3.563,3.125,5.969v59.219c0.102,2.586-1.273,5-3.551,6.23
	l-84.68,43.578c-0.969,0.508-2.043,0.773-3.133,0.773c-1.25,0-2.477-0.359-3.531-1.027c-2.02-1.301-3.199-3.574-3.105-5.973V116.938
	z M113.645,267.109l-84.934,43.578c-2.227,1.152-4.902,1.027-7.012-0.328s-3.328-3.738-3.203-6.242
	c0.129-2.504,1.586-4.75,3.82-5.887l84.938-43.578c2.227-1.152,4.898-1.027,7.008,0.328s3.332,3.738,3.203,6.242
	C117.34,263.727,115.879,265.973,113.645,267.109z M113.645,217.762L28.711,261.34c-2.227,1.152-4.902,1.027-7.012-0.328
	s-3.328-3.738-3.203-6.242c0.129-2.504,1.586-4.75,3.82-5.887l84.938-43.578c2.227-1.156,4.898-1.027,7.008,0.328
	s3.332,3.738,3.203,6.242C117.34,214.379,115.879,216.625,113.645,217.762z"/>
<path fill="#F47920" d="M436,0L297,71.227v340.711l139-71.227V0z M413.078,197.035l-84.934,43.578
	c-2.227,1.152-4.902,1.027-7.008-0.328c-2.109-1.359-3.332-3.738-3.203-6.242c0.125-2.504,1.582-4.75,3.82-5.887l84.934-43.578
	c2.23-1.168,4.914-1.051,7.031,0.305c2.117,1.359,3.344,3.75,3.211,6.262S415.328,195.906,413.078,197.035z M413.078,147.688
	l-84.934,43.578c-2.227,1.152-4.902,1.027-7.008-0.328c-2.109-1.359-3.332-3.738-3.203-6.242c0.125-2.504,1.582-4.75,3.82-5.887
	l84.934-43.578c2.23-1.168,4.914-1.051,7.031,0.305c2.117,1.359,3.344,3.75,3.211,6.262S415.328,146.559,413.078,147.688z
	 M413.078,98.34l-84.934,43.578c-2.227,1.152-4.902,1.027-7.008-0.328c-2.109-1.359-3.332-3.738-3.203-6.242
	c0.125-2.508,1.582-4.75,3.82-5.887l84.934-43.578c2.23-1.168,4.914-1.051,7.031,0.305c2.117,1.359,3.344,3.75,3.211,6.262
	S415.328,97.211,413.078,98.34z"/>
</svg>
