<?xml version="1.0" encoding="utf-8"?>
<!-- Generator: Adobe Illustrator 15.0.0, SVG Export Plug-In . SVG Version: 6.00 Build 0)  -->
<!DOCTYPE svg PUBLIC "-//W3C//DTD SVG 1.1//EN" "http://www.w3.org/Graphics/SVG/1.1/DTD/svg11.dtd">
<svg version="1.1" id="Capa_1" xmlns="http://www.w3.org/2000/svg" xmlns:xlink="http://www.w3.org/1999/xlink" x="0px" y="0px"
	 width="48px" height="44px" viewBox="547.023 1834.905 48 44" enable-background="new 547.023 1834.905 48 44"
	 xml:space="preserve">
<g>
	<g>
		<g>
			<path fill="#F47920" d="M582.023,1850.905h-2c-0.553,0-1,0.447-1,1s0.447,1,1,1h2c0.553,0,1-0.447,1-1
				S582.576,1850.905,582.023,1850.905z"/>
			<path fill="#F47920" d="M581.316,1843.198l-2,2c-0.391,0.391-0.391,1.023,0,1.414c0.195,0.195,0.451,0.293,0.707,0.293
				s0.512-0.098,0.707-0.293l2-2c0.391-0.391,0.391-1.023,0-1.414S581.707,1842.807,581.316,1843.198z"/>
			<path fill="#F47920" d="M580.73,1857.198c-0.391-0.391-1.023-0.391-1.414,0s-0.391,1.023,0,1.414l2,2
				c0.195,0.195,0.451,0.293,0.707,0.293s0.512-0.098,0.707-0.293c0.391-0.391,0.391-1.023,0-1.414L580.73,1857.198z"/>
			<path fill="#F47920" d="M576.023,1842.905c-0.553,0-1,0.447-1,1v1.265l-14.068,4.396c-0.14-0.384-0.499-0.662-0.932-0.662
				c-0.553,0-1,0.447-1,1v4c0,0.553,0.447,1,1,1c0.433,0,0.792-0.277,0.932-0.661l2.07,0.646c0,0.005-0.002,0.01-0.002,0.015
				c0,2.206,1.795,4,4,4c1.319,0,2.52-0.686,3.257-1.747l4.743,1.482v1.265c0,0.553,0.447,1,1,1s1-0.447,1-1v-16
				C577.023,1843.352,576.576,1842.905,576.023,1842.905z M567.023,1856.905c-0.873,0-1.596-0.569-1.868-1.349l3.047,0.952
				C567.867,1856.757,567.462,1856.905,567.023,1856.905z"/>
			<path fill="#F47920" d="M591.023,1834.905h-40c-2.205,0-4,1.794-4,4v28c0,2.206,1.795,4,4,4h14.004
				c-0.042,1.596-0.347,4.147-1.491,5.353c-0.42,0.441-0.9,0.647-1.514,0.647c-0.553,0-1,0.447-1,1s0.447,1,1,1h18
				c0.553,0,1-0.447,1-1s-0.447-1-1-1c-0.613,0-1.094-0.205-1.512-0.646c-1.141-1.199-1.448-3.755-1.492-5.354h14.003
				c2.205,0,4-1.794,4-4v-28C595.023,1836.699,593.228,1834.905,591.023,1834.905z M571.023,1868.911
				c-1.105,0-2.006-0.9-2.006-2.006s0.9-2.006,2.006-2.006s2.006,0.9,2.006,2.006S572.129,1868.911,571.023,1868.911z
				 M551.023,1862.905v-24h40l0.001,24H551.023z"/>
		</g>
	</g>
</g>
</svg>
