<?xml version="1.0" encoding="utf-8"?>
<!-- Generator: Adobe Illustrator 15.0.0, SVG Export Plug-In  -->
<!DOCTYPE svg PUBLIC "-//W3C//DTD SVG 1.1//EN" "http://www.w3.org/Graphics/SVG/1.1/DTD/svg11.dtd" [
	<!ENTITY ns_flows "http://ns.adobe.com/Flows/1.0/">
]>
<svg version="1.1"
	 xmlns="http://www.w3.org/2000/svg" xmlns:xlink="http://www.w3.org/1999/xlink" xmlns:a="http://ns.adobe.com/AdobeSVGViewerExtensions/3.0/"
	 x="0px" y="0px" width="87px" height="112px" viewBox="0 0 87 112" enable-background="new 0 0 87 112" xml:space="preserve">
<defs>
</defs>
<polygon fill="#D7EFF7" stroke="#33C2E7" stroke-width="2.5" points="1.25,30.397 1.25,111.193 86.072,111.193 86.072,1.25 
	28.44,1.25 "/>
<line fill="none" stroke="#33C2E7" stroke-width="2.5" x1="1.545" y1="30.397" x2="30.115" y2="30.397"/>
<line fill="none" stroke="#33C2E7" stroke-width="2.5" x1="29.327" y1="1.287" x2="29.327" y2="31.113"/>
<path fill="#33C2E7" d="M74.841,56.074c0,1.388-1.125,2.512-2.512,2.512h-56.45c-1.387,0-2.512-1.124-2.512-2.512l0,0
	c0-1.388,1.125-2.513,2.512-2.513h56.45C73.716,53.562,74.841,54.687,74.841,56.074L74.841,56.074z"/>
<path fill="#33C2E7" d="M74.841,70.999c0,1.306-1.059,2.364-2.364,2.364H15.732c-1.306,0-2.364-1.059-2.364-2.364l0,0
	c0-1.306,1.059-2.364,2.364-2.364h56.745C73.782,68.635,74.841,69.693,74.841,70.999L74.841,70.999z"/>
<path fill="#33C2E7" d="M74.841,83.774c0,1.194-0.968,2.162-2.162,2.162H15.53c-1.194,0-2.162-0.968-2.162-2.162l0,0
	c0-1.194,0.968-2.162,2.162-2.162h57.149C73.873,81.612,74.841,82.58,74.841,83.774L74.841,83.774z"/>
<path fill="#33C2E7" d="M36.125,98.78c0,1.143-0.927,2.068-2.069,2.068h-18.62c-1.143,0-2.068-0.926-2.068-2.068l0,0
	c0-1.143,0.926-2.068,2.068-2.068h18.62C35.198,96.712,36.125,97.638,36.125,98.78L36.125,98.78z"/>
<path fill="#33C2E7" d="M74.841,98.78c0,1.143-0.926,2.068-2.069,2.068H52.675c-1.143,0-2.069-0.926-2.069-2.068l0,0
	c0-1.143,0.926-2.068,2.069-2.068h20.097C73.915,96.712,74.841,97.638,74.841,98.78L74.841,98.78z"/>
<polygon fill="#FFFFFF" points="27.943,3.473 4.11,29.099 27.943,29.099 "/>
</svg>
