<?xml version="1.0" encoding="utf-8"?>
<!-- Generator: Adobe Illustrator 15.0.0, SVG Export Plug-In . SVG Version: 6.00 Build 0)  -->
<!DOCTYPE svg PUBLIC "-//W3C//DTD SVG 1.1//EN" "http://www.w3.org/Graphics/SVG/1.1/DTD/svg11.dtd">
<svg version="1.1" id="Capa_1" xmlns="http://www.w3.org/2000/svg" xmlns:xlink="http://www.w3.org/1999/xlink" x="0px" y="0px"
	 width="1728.872px" height="1729.129px" viewBox="0.129 1261.42 1728.872 1729.129"
	 enable-background="new 0.129 1261.42 1728.872 1729.129" xml:space="preserve">
<g>
	<g>
		<path fill="#F47920" d="M1675.409,1901.782c-62.962-52.934-159.296-46.629-213.96,18.551l-32.85,38.865l232.842,195.369
			l31.367-38.723C1746.76,2051.677,1739.933,1955.845,1675.409,1901.782z"/>
	</g>
</g>
<g>
	<g>
		<path fill="#F47920" d="M1017.806,2445.247l-17.329,20.506c-15.038,18.008-25.873,39.527-31.313,62.332l-47.095,197.092
			c-4.451,18.648,2.029,38.24,16.72,50.561c14.3,12.016,34.469,15.504,52.688,7.717l185.959-80.639
			c21.52-9.352,40.813-23.744,55.853-41.604l17.389-20.574L1017.806,2445.247z"/>
	</g>
</g>
<g>
	<g>
		<polygon fill="#F47920" points="1363.23,2036.547 1083.181,2367.897 1316.041,2563.29 1596.072,2231.915 		"/>
	</g>
</g>
<g>
	<g>
		<path fill="#F47920" d="M1269.897,1486.018l-192.439-182.845c-18.193-17.248-40.574-27.406-64.164-34.005v296.202h300.747
			C1307.756,1535.278,1292.424,1507.402,1269.897,1486.018z"/>
	</g>
</g>
<g>
	<g>
		<path fill="#F47920" d="M870.617,2504.54c9.055-37.896,27.109-73.762,52.141-103.74l394.481-466.778v-267.337H962.633
			c-28,0-50.658-22.657-50.658-50.658V1261.42H152.102c-83.802,0-151.974,68.173-151.974,151.975v1425.182
			c0,83.801,68.172,151.973,151.974,151.973h1013.163c83.802,0,151.974-68.172,151.974-151.973v-119.754l-6.579,7.785
			c-24.883,29.635-56.99,53.529-92.758,69.115l-186.107,80.688c-52.455,22.65-113.174,14.627-158.107-23.006
			c-44.377-37.25-63.62-95.379-50.165-151.775L870.617,2504.54z M253.419,1565.369H760c28.001,0,50.658,22.657,50.658,50.657
			c0,28.001-22.657,50.658-50.658,50.658H253.419c-28,0-50.658-22.657-50.658-50.658
			C202.76,1588.026,225.419,1565.369,253.419,1565.369z M253.419,1872.694h810.53c28,0,50.658,22.658,50.658,50.658
			c0,28.001-22.658,50.658-50.658,50.658h-810.53c-28,0-50.658-22.657-50.658-50.658
			C202.76,1895.353,225.419,1872.694,253.419,1872.694z M658.683,2581.909H253.419c-28,0-50.658-22.658-50.658-50.658
			c0-28.002,22.658-50.658,50.658-50.658h405.265c28.001,0,50.658,22.658,50.658,50.658S686.684,2581.909,658.683,2581.909z
			 M253.419,2277.959c-28,0-50.658-22.658-50.658-50.658s22.658-50.658,50.658-50.658h607.897c28,0,50.658,22.658,50.658,50.658
			s-22.658,50.658-50.658,50.658H253.419z"/>
	</g>
</g>
</svg>
