<?xml version="1.0" encoding="utf-8"?>
<!-- Generator: Adobe Illustrator 15.0.0, SVG Export Plug-In  -->
<!DOCTYPE svg PUBLIC "-//W3C//DTD SVG 1.1//EN" "http://www.w3.org/Graphics/SVG/1.1/DTD/svg11.dtd" [
	<!ENTITY ns_flows "http://ns.adobe.com/Flows/1.0/">
]>
<svg version="1.1"
	 xmlns="http://www.w3.org/2000/svg" xmlns:xlink="http://www.w3.org/1999/xlink" xmlns:a="http://ns.adobe.com/AdobeSVGViewerExtensions/3.0/"
	 x="0px" y="0px" width="77px" height="53px" viewBox="0 0 77 53" enable-background="new 0 0 77 53" xml:space="preserve">
<defs>
</defs>
<path fill="none" stroke="#3576AC" stroke-width="1.18" d="M11.577,21.636c0,0-0.754-5.811,3.472-6.641
	c0,0,10.112,0.227,12.527-4.83c0,0,7.924,3.773,3.245,19.545c0,0-6.49,9.811-14.414,3.472
	C16.407,33.182,12.144,29.975,11.577,21.636z"/>
<path fill="none" stroke="#3576AC" stroke-width="1.18" d="M11.8,23.663c0,0-1.2-2.384-1.979-5.68
	c-0.923-3.905-1.254-9.089,1.705-13.1c0,0,7.488-9.659,17.333,0c0,0,11.408,0.548,3.44,17.857"/>
<path fill="none" stroke="#3576AC" stroke-width="1.18" d="M9.988,18.654c0,0-3.109,3.478,2.184,6.89"/>
<path fill="none" stroke="#3576AC" stroke-width="1.18" d="M33.823,19.172c0,0,3.108,3.478-2.184,6.89"/>
<path fill="none" stroke="#3576AC" stroke-width="1.18" d="M15.818,32.639v4.089c0,0-14.127,1.057-15.184,15.395h42.788
	c0,0,0.378-13.131-15.243-15.697l-0.015-3.788"/>
<polyline fill="none" stroke="#3576AC" stroke-width="1.18" points="15.003,36.834 21.912,41.332 28.511,36.485 "/>
<polyline fill="none" stroke="#3576AC" stroke-width="1.18" points="13.226,37.211 15.502,44.501 21.757,41.332 28.511,45.558 
	30.972,37.211 "/>
<polyline fill="none" stroke="#3576AC" stroke-width="1.18" points="19.687,42.381 20.709,44.577 18.143,52.124 25.991,52.124 
	23.35,44.426 24.015,42.745 "/>
<path fill="none" stroke="#3576AC" stroke-width="0.9261" d="M52.561,22.759c0,0,0.978-3.26,3.993-3.586c0,0,6.52-1.549,7.498-4.564
	c0,0,4.4,2.445,2.037,13.121c0,0-3.789,7.273-9.841,3.117C56.248,30.847,52.968,30.073,52.561,22.759z"/>
<path fill="none" stroke="#3576AC" stroke-width="0.9261" d="M55.697,30.592c0,0-4.889,4.146-9.352,0c0,0,3.668-2.617,2.384-8.241
	c0,0-3.545-14.181,9.413-16.197c0,0,4.401-0.673,6.662,3.056c0,0,6.357,0.305,6.297,7.945c0,0-1.651,8.986,0,11.614
	c0,0,0.814,0.917,1.996,0.917c0,0-2.675,5.35-9.223,0.801"/>
<path fill="none" stroke="#3576AC" stroke-width="0.9261" d="M42.903,46.352c0,0,1.589-11.695,11.816-11.614
	c0,0,2.404,0.245,3.83,3.056c0,0,0.856,1.345,2.181-0.366c0,0,3.443-3.504,5.664-2.934c0,0,8.13,1.426,10.126,11.858H42.903z"/>
<path fill="none" stroke="#3576AC" stroke-width="0.9261" d="M52.699,34.887c0,0-0.638,11.465,6.008,3.093"/>
<path fill="none" stroke="#3576AC" stroke-width="0.9261" d="M66.675,34.642c0,0,0.638,11.465-6.009,3.094"/>
<path fill="none" stroke="#3576AC" stroke-width="0.9261" d="M57.776,39.077c0,0,1.253,0.816,0.581,2.375l-1.987,4.9"/>
<path fill="none" stroke="#3576AC" stroke-width="0.9261" d="M61.762,39.027c0,0-1.253,0.816-0.58,2.375l1.986,4.9"/>
<line fill="none" stroke="#3576AC" stroke-width="0.9261" x1="55.697" y1="30.592" x2="55.697" y2="34.887"/>
<line fill="none" stroke="#3576AC" stroke-width="0.9261" x1="63.875" y1="30.486" x2="63.875" y2="35.037"/>
</svg>
