<?xml version="1.0" encoding="utf-8"?>
<!-- Generator: Adobe Illustrator 15.0.0, SVG Export Plug-In  -->
<!DOCTYPE svg PUBLIC "-//W3C//DTD SVG 1.1//EN" "http://www.w3.org/Graphics/SVG/1.1/DTD/svg11.dtd" [
	<!ENTITY ns_flows "http://ns.adobe.com/Flows/1.0/">
]>
<svg version="1.1"
	 xmlns="http://www.w3.org/2000/svg" xmlns:xlink="http://www.w3.org/1999/xlink" xmlns:a="http://ns.adobe.com/AdobeSVGViewerExtensions/3.0/"
	 x="0px" y="0px" width="64px" height="49px" viewBox="0 0 64 49" enable-background="new 0 0 64 49" xml:space="preserve">
<defs>
</defs>
<g>
	<path fill="#FFFFFF" d="M17.53,36.641V22.423c4.422-2.14,9.378-3.27,14.358-3.27c4.982,0,9.938,1.129,14.357,3.27v14.218H17.53z"/>
	<path fill="#25A69A" d="M31.888,19.744c4.769,0,9.512,1.053,13.767,3.051V36.05H18.121V22.795
		C22.378,20.797,27.122,19.744,31.888,19.744 M31.888,18.563c-5.196,0-10.364,1.208-14.948,3.492V37.23h29.895V22.055
		C42.254,19.771,37.084,18.563,31.888,18.563L31.888,18.563z"/>
</g>
<g>
	<path fill="#B3E0DB" d="M53.021,43.089l3.69-7.918c0.037-0.078,0.055-0.163,0.055-0.249V20.728c0-0.206-0.107-0.397-0.284-0.504
		c-0.094-0.057-0.2-0.085-0.306-0.085c-0.093,0-0.187,0.022-0.272,0.066l-4.744,2.467v-2.927c0-0.245-0.151-0.464-0.38-0.551
		c-0.15-0.058-0.409-0.194-0.773-0.384c-2.409-1.25-8.807-4.572-18.12-4.572c-9.24,0-15.967,3.462-18.177,4.601
		c-0.342,0.176-0.583,0.302-0.717,0.354c-0.229,0.087-0.38,0.307-0.38,0.551v2.922L1.269,16.68L31.888,0.666l30.636,16.023
		l-2.892,1.578c-0.189,0.104-0.307,0.302-0.307,0.518v16.137c0,0.086,0.019,0.171,0.055,0.25l3.691,7.918l-5.025,5.271
		L53.021,43.089z"/>
	<path fill="#25A69A" d="M31.888,1.332L61.272,16.7l-1.923,1.05c-0.379,0.207-0.615,0.604-0.615,1.036v16.137
		c0,0.172,0.038,0.342,0.111,0.499l3.521,7.553l-4.32,4.532l-4.32-4.532l3.521-7.553c0.073-0.156,0.111-0.326,0.111-0.499V20.728
		c0-0.412-0.215-0.795-0.568-1.009c-0.188-0.114-0.4-0.171-0.612-0.171c-0.187,0-0.374,0.044-0.544,0.133l-3.881,2.018v-1.955
		c0-0.49-0.302-0.928-0.76-1.103c-0.099-0.038-0.411-0.2-0.712-0.356c-2.444-1.269-8.935-4.639-18.392-4.639
		c-9.383,0-16.206,3.512-18.447,4.666c-0.267,0.138-0.57,0.293-0.657,0.327c-0.458,0.174-0.76,0.613-0.76,1.103v1.944l-9.486-5.004
		L31.888,1.332 M31.888,0L0,16.678l13.204,6.965v-3.9c1.052-0.401,8.125-4.916,18.684-4.916c10.706,0,17.552,4.486,18.684,4.917
		v3.898l5.605-2.915v14.194l-3.861,8.283l5.729,6.01l5.73-6.01l-3.861-8.283V18.785l3.861-2.107L31.888,0L31.888,0z"/>
</g>
</svg>
