<?xml version="1.0" encoding="utf-8"?>
<!-- Generator: Adobe Illustrator 15.0.0, SVG Export Plug-In . SVG Version: 6.00 Build 0)  -->
<!DOCTYPE svg PUBLIC "-//W3C//DTD SVG 1.1//EN" "http://www.w3.org/Graphics/SVG/1.1/DTD/svg11.dtd">
<svg version="1.1" id="Layer_1" xmlns="http://www.w3.org/2000/svg" xmlns:xlink="http://www.w3.org/1999/xlink" x="0px" y="0px"
	 width="139.333px" height="122.333px" viewBox="0 0 139.333 122.333" enable-background="new 0 0 139.333 122.333"
	 xml:space="preserve">
<path fill="#4CC1BD" d="M16.667,0L0,49.667V114c0,0,1.666,7.668,8.333,8.334H130c0,0,9.333-3.001,9.333-8.334V49.667L121.333,0
	H16.667z"/>
<path fill="#FFFFFF" d="M41.333,77.333c0,0,2.583-3.915,6.917-3.249c0,0,4.25,1.334,3.917,7.25L51.333,86H90.25l-2-7.583
	c0,0,0.667-7.084,9-3.417l5,14.334c0,0,2.167,6.5-3,6.583H42.167c0,0-4.417-0.083-4-5.333L41.333,77.333z"/>
<path fill="#FFFFFF" d="M8.333,42.167l11.5-36.75h98.75l11.75,36.75h-41c0,0,1.5,7.5-6.25,7.5h-29.25c0,0-5.333-1.5-3.167-7.833
	L8.333,42.167z"/>
<path fill="#4CC1BD" d="M113.667,13c0,1.104-0.896,2-2,2h-86c-1.104,0-2-0.896-2-2l0,0c0-1.104,0.896-2,2-2h86
	C112.771,11,113.667,11.896,113.667,13L113.667,13z"/>
<path fill="#4CC1BD" d="M118,23.833c0,1.196-0.97,2.167-2.167,2.167H22.5c-1.197,0-2.167-0.97-2.167-2.167l0,0
	c0-1.197,0.97-2.167,2.167-2.167h93.333C117.03,21.667,118,22.637,118,23.833L118,23.833z"/>
<path fill="#4CC1BD" d="M120,34.333c0,1.104-0.896,2-2,2H19c-1.104,0-2-0.896-2-2l0,0c0-1.104,0.896-2,2-2h99
	C119.104,32.333,120,33.229,120,34.333L120,34.333z"/>
</svg>
