<?xml version="1.0" encoding="utf-8"?>
<!-- Generator: Adobe Illustrator 15.0.0, SVG Export Plug-In  -->
<!DOCTYPE svg PUBLIC "-//W3C//DTD SVG 1.1//EN" "http://www.w3.org/Graphics/SVG/1.1/DTD/svg11.dtd" [
	<!ENTITY ns_flows "http://ns.adobe.com/Flows/1.0/">
]>
<svg version="1.1"
	 xmlns="http://www.w3.org/2000/svg" xmlns:xlink="http://www.w3.org/1999/xlink" xmlns:a="http://ns.adobe.com/AdobeSVGViewerExtensions/3.0/"
	 x="0px" y="0px" width="304px" height="392px" viewBox="0 0 304 392" enable-background="new 0 0 304 392" xml:space="preserve">
<defs>
</defs>
<path fill="#F47920" d="M73,47.199V11.301L11.602,73h35.598c6.859,0.051,13.453-2.648,18.301-7.5
	C70.352,60.652,73.051,54.059,73,47.199z"/>
<path fill="#F47920" d="M271.602,0H89v47.199c0.039,11.098-4.352,21.754-12.199,29.602S58.297,89.039,47.199,89H0v271.102
	C0,377.699,14.699,392,32.398,392h239.301c17.602,0,32.402-14.301,32.402-31.898V31.898C304,14.301,289.301,0,271.602,0z
	 M66.801,321h-29.5c-4.418,0-8-3.582-8-8s3.582-8,8-8h29.5c4.418,0,8,3.582,8,8S71.219,321,66.801,321z M66.801,241h-29.5
	c-4.418,0-8-3.582-8-8s3.582-8,8-8h29.5c4.418,0,8,3.582,8,8S71.219,241,66.801,241z M66.801,161h-29.5c-4.418,0-8-3.582-8-8
	s3.582-8,8-8h29.5c4.418,0,8,3.582,8,8S71.219,161,66.801,161z M266.801,321H107.199c-4.418,0-8-3.582-8-8s3.582-8,8-8h159.5
	c4.414,0.012,7.988,3.586,8,8c0.016,2.109-0.805,4.141-2.289,5.641C270.93,320.141,268.91,320.988,266.801,321z M266.801,241
	H107.199c-4.418,0-8-3.582-8-8s3.582-8,8-8h159.5c4.414,0.012,7.988,3.586,8,8c0.016,2.109-0.805,4.141-2.289,5.641
	C270.93,240.141,268.91,240.988,266.801,241z M266.801,161H107.199c-4.418,0-8-3.582-8-8s3.582-8,8-8h159.5
	c4.414,0.012,7.988,3.586,8,8c0.016,2.109-0.805,4.141-2.289,5.641C270.93,160.141,268.91,160.988,266.801,161z"/>
</svg>
