<?xml version="1.0" encoding="utf-8"?>
<!-- Generator: Adobe Illustrator 15.0.0, SVG Export Plug-In  -->
<!DOCTYPE svg PUBLIC "-//W3C//DTD SVG 1.1//EN" "http://www.w3.org/Graphics/SVG/1.1/DTD/svg11.dtd" [
	<!ENTITY ns_flows "http://ns.adobe.com/Flows/1.0/">
]>
<svg version="1.1"
	 xmlns="http://www.w3.org/2000/svg" xmlns:xlink="http://www.w3.org/1999/xlink" xmlns:a="http://ns.adobe.com/AdobeSVGViewerExtensions/3.0/"
	 x="0px" y="0px" width="40px" height="35px" viewBox="0 0 40 35" enable-background="new 0 0 40 35" xml:space="preserve">
<defs>
</defs>
<path fill="#F47921" d="M15.502,18.052h9.344v4.086h-9.344V18.052z"/>
<g>
	<path fill="#FDD6C2" d="M3.546,34.835c-1.609,0-2.919-1.31-2.919-2.919V9.965l3.028,9.086c0.569,1.707,2.16,2.854,3.958,2.854
		h6.023v0.555c0,0.998,0.812,1.81,1.809,1.81h9.456c0.998,0,1.809-0.812,1.809-1.81v-0.555h6.022c1.798,0,3.389-1.146,3.959-2.852
		l3.028-9.087v21.95c0,1.609-1.31,2.919-2.919,2.919H3.546z"/>
	<path fill="#F47920" d="M1.254,13.83l1.806,5.419c0.655,1.964,2.484,3.282,4.553,3.282h5.397c0.038,1.311,1.116,2.364,2.435,2.364
		h9.456c1.319,0,2.397-1.054,2.435-2.364h5.396c2.068,0,3.898-1.318,4.554-3.281l1.806-5.419v18.085
		c0,1.264-1.028,2.292-2.292,2.292H3.546c-1.264,0-2.292-1.028-2.292-2.292V13.83 M0,6.1v25.816c0,1.954,1.591,3.546,3.546,3.546
		h33.256c1.955,0,3.546-1.592,3.546-3.546V6.101l-4.25,12.753c-0.484,1.449-1.836,2.424-3.364,2.424h-6.649v1.182
		c0,0.653-0.529,1.183-1.182,1.183h-9.456c-0.654,0-1.182-0.529-1.182-1.183v-1.182h-6.65c-1.527,0-2.879-0.974-3.363-2.425L0,6.1
		L0,6.1z"/>
</g>
<g>
	<path fill="#FFFFFF" d="M26.711,18.286V17.73c0-0.997-0.812-1.809-1.809-1.809h-9.456c-0.998,0-1.809,0.812-1.809,1.809v0.556
		H7.613c-0.239,0-0.451-0.152-0.526-0.38L2.904,5.355h9.623V3.545c0-1.609,1.31-2.918,2.919-2.918h9.456
		c1.61,0,2.919,1.309,2.919,2.918v1.811h9.623l-4.183,12.551c-0.076,0.227-0.288,0.38-0.527,0.38H26.711z M15.446,1.737
		c-0.998,0-1.809,0.811-1.809,1.808v1.811h13.074V3.545c0-0.997-0.812-1.808-1.809-1.808H15.446z"/>
	<path fill="#F47920" d="M36.574,5.982l-3.892,11.677h-5.345c-0.038-1.311-1.116-2.364-2.436-2.364h-9.456
		c-1.319,0-2.397,1.054-2.436,2.364H7.665L3.774,5.982h8.125h1.254h1.11h11.82h1.11h1.254H36.574 M24.902,0h-9.456
		c-1.956,0-3.546,1.592-3.546,3.545v1.184H2.034l4.458,13.376c0.161,0.484,0.613,0.809,1.122,0.809h6.65V17.73
		c0-0.653,0.528-1.182,1.182-1.182h9.456c0.653,0,1.182,0.528,1.182,1.182v1.183h6.649c0.509,0,0.96-0.324,1.122-0.809l4.458-13.376
		h-9.866V3.545C28.448,1.592,26.857,0,24.902,0L24.902,0z M14.264,4.729V3.545c0-0.651,0.529-1.181,1.182-1.181h9.456
		c0.652,0,1.182,0.529,1.182,1.181v1.184H14.264L14.264,4.729z"/>
</g>
</svg>
