<?xml version="1.0" encoding="utf-8"?>
<!-- Generator: Adobe Illustrator 15.0.0, SVG Export Plug-In  -->
<!DOCTYPE svg PUBLIC "-//W3C//DTD SVG 1.1//EN" "http://www.w3.org/Graphics/SVG/1.1/DTD/svg11.dtd" [
	<!ENTITY ns_flows "http://ns.adobe.com/Flows/1.0/">
]>
<svg version="1.1"
	 xmlns="http://www.w3.org/2000/svg" xmlns:xlink="http://www.w3.org/1999/xlink" xmlns:a="http://ns.adobe.com/AdobeSVGViewerExtensions/3.0/"
	 x="0px" y="0px" width="48px" height="54px" viewBox="0 0 48 54" enable-background="new 0 0 48 54" xml:space="preserve">
<defs>
</defs>
<polygon fill="#D1C3E0" stroke="#775CA7" stroke-width="1.18" points="1.751,17.511 45.876,17.512 23.814,0.741 "/>
<rect x="2.124" y="48.655" fill="#D1C3E0" stroke="#775CA7" stroke-width="1.18" width="43.38" height="5.112"/>
<rect x="6.931" y="20.822" fill="#FFFFFF" stroke="#775CA7" stroke-width="1.18" width="9.69" height="3.95"/>
<rect x="6.931" y="41.245" fill="#FFFFFF" stroke="#775CA7" stroke-width="1.18" width="9.69" height="3.951"/>
<line fill="#FFE298" stroke="#775CA7" stroke-width="1.18" x1="9.242" y1="24.772" x2="9.242" y2="41.245"/>
<line fill="#FFE298" stroke="#775CA7" stroke-width="1.18" x1="14.459" y1="24.772" x2="14.459" y2="41.245"/>
<rect x="19.006" y="20.822" fill="#FFFFFF" stroke="#775CA7" stroke-width="1.18" width="9.689" height="3.95"/>
<rect x="19.006" y="41.245" fill="#FFFFFF" stroke="#775CA7" stroke-width="1.18" width="9.689" height="3.951"/>
<line fill="#FFE298" stroke="#775CA7" stroke-width="1.18" x1="21.317" y1="24.772" x2="21.317" y2="41.245"/>
<line fill="#FFE298" stroke="#775CA7" stroke-width="1.18" x1="26.534" y1="24.772" x2="26.534" y2="41.245"/>
<rect x="31.305" y="20.822" fill="#FFFFFF" stroke="#775CA7" stroke-width="1.18" width="9.689" height="3.95"/>
<rect x="31.305" y="41.245" fill="#FFFFFF" stroke="#775CA7" stroke-width="1.18" width="9.689" height="3.951"/>
<line fill="#FFE298" stroke="#775CA7" stroke-width="1.18" x1="33.615" y1="24.772" x2="33.615" y2="41.245"/>
<line fill="#FFE298" stroke="#775CA7" stroke-width="1.18" x1="38.833" y1="24.772" x2="38.833" y2="41.245"/>
<rect x="9.242" y="24.772" fill="#FFFFFF" stroke="#775CA7" stroke-width="1.18" width="5.217" height="16.473"/>
<rect x="21.28" y="24.847" fill="#FFFFFF" stroke="#775CA7" stroke-width="1.18" width="5.217" height="16.473"/>
<rect x="33.541" y="24.722" fill="#FFFFFF" stroke="#775CA7" stroke-width="1.18" width="5.217" height="16.473"/>
</svg>
