<?xml version="1.0" encoding="utf-8"?>
<!-- Generator: Adobe Illustrator 15.0.0, SVG Export Plug-In . SVG Version: 6.00 Build 0)  -->
<!DOCTYPE svg PUBLIC "-//W3C//DTD SVG 1.1//EN" "http://www.w3.org/Graphics/SVG/1.1/DTD/svg11.dtd">
<svg version="1.1" id="Layer_1" xmlns="http://www.w3.org/2000/svg" xmlns:xlink="http://www.w3.org/1999/xlink" x="0px" y="0px"
	 width="499px" height="400px" viewBox="0 0 499 400" enable-background="new 0 0 499 400" xml:space="preserve">
<g>
	<path fill="#FFFFFF" d="M499.465,391.496c0,4.677-3.827,8.504-8.504,8.504H8.969c-4.677,0-8.504-3.827-8.504-8.504V8.84
		c0-4.677,3.827-8.504,8.504-8.504h481.992c4.677,0,8.504,3.827,8.504,8.504V391.496z"/>
</g>
<rect y="78.033" fill="#F1F5F7" width="499" height="321.967"/>
<rect x="57.298" y="8.035" fill="#F1F5F7" width="74.667" height="9.333"/>
<rect x="57.298" y="23.701" fill="#F1F5F7" width="209" height="9.333"/>
<circle fill="#F1F5F7" cx="469.631" cy="19.701" r="12.334"/>
<circle fill="#F1F5F7" cx="486" cy="62.035" r="5.965"/>
<path fill="#2772AA" d="M444.963,24.534c0,2.761-2.238,5-5,5h-36.666c-2.762,0-5-2.239-5-5v-9.667c0-2.761,2.238-5,5-5h36.666
	c2.762,0,5,2.239,5,5V24.534z"/>
<line fill="none" stroke="#F0F4F8" stroke-width="2.126" stroke-miterlimit="10" x1="0" y1="44.368" x2="499" y2="44.368"/>
<line fill="none" stroke="#F0F4F8" stroke-width="2.126" stroke-miterlimit="10" x1="471.798" y1="81.535" x2="471.798" y2="45.201"/>
<g>
	<path fill="#FFFFFF" d="M468.128,400c4.677,0,8.504-3.827,8.504-8.504V109.372c0-4.677-3.827-8.504-8.504-8.504H31.802
		c-4.677,0-8.504,3.827-8.504,8.504v282.124c0,4.677,3.827,8.504,8.504,8.504H468.128z"/>
</g>
<text transform="matrix(1 0 0 1 54.4648 153.5347)"><tspan x="0" y="0" fill="#555656" font-family="'Roboto-Regular'" font-size="15.5906">People trust ProofreadingPal to ensure that their docu-</tspan><tspan x="0" y="30.047" fill="#555656" font-family="'Roboto-Regular'" font-size="15.5906">ments are Grammatically sound. That’s whey every</tspan><tspan x="0" y="60.095" fill="#555656" font-family="'Roboto-Regular'" font-size="15.5906">document you submit to ProofreadingPal is proofread</tspan><tspan x="0" y="90.142" fill="#555656" font-family="'Roboto-Regular'" font-size="15.5906">and editedby two of our highly skilled proofreaders;</tspan><tspan x="0" y="120.189" fill="#555656" font-family="'Roboto-Regular'" font-size="15.5906">our unique twoo-editr approach ensures the utmost</tspan><tspan x="0" y="150.236" fill="#555656" font-family="'Roboto-Regular'" font-size="15.5906">accuracy. our proofreading staff is composed of expe-</tspan><tspan x="0" y="180.283" fill="#555656" font-family="'Roboto-Regular'" font-size="15.5906">rienced, detail oriented individuals.</tspan></text>
<polygon fill="#ED1F24" stroke="#FFFFFF" stroke-width="0.1417" stroke-miterlimit="10" points="256.794,157.8 257.495,157.099 
	257.493,157.097 257.495,157.094 256.794,156.393 256.792,156.396 256.788,156.393 256.087,157.094 256.091,157.097 
	254.999,158.188 253.903,157.094 253.202,156.393 251.405,158.188 250.315,157.097 250.317,157.094 249.616,156.393 
	249.614,156.396 249.61,156.393 248.909,157.094 248.913,157.097 247.821,158.188 246.726,157.094 246.024,156.393 244.229,158.188 
	243.137,157.097 243.141,157.094 242.439,156.393 242.436,156.396 242.432,156.393 241.731,157.094 241.735,157.097 
	240.643,158.188 239.547,157.094 238.846,156.393 237.05,158.188 235.959,157.097 235.962,157.094 235.261,156.393 235.258,156.396 
	235.254,156.393 234.553,157.094 234.557,157.097 233.465,158.188 232.37,157.094 231.669,156.393 229.873,158.188 228.781,157.097 
	228.785,157.094 228.083,156.393 228.08,156.396 228.077,156.393 227.375,157.094 227.379,157.097 226.287,158.188 225.192,157.094 
	224.491,156.393 222.695,158.188 221.604,157.097 221.607,157.094 220.906,156.393 220.902,156.396 220.899,156.393 
	220.198,157.094 220.201,157.097 219.109,158.188 218.015,157.094 217.313,156.393 215.517,158.188 214.426,157.097 
	214.429,157.094 213.728,156.393 213.725,156.396 213.721,156.393 213.02,157.094 213.023,157.097 211.932,158.188 210.837,157.094 
	210.136,156.393 208.339,158.188 207.248,157.097 207.251,157.094 206.55,156.393 206.547,156.396 206.543,156.393 205.842,157.094 
	205.846,157.097 204.754,158.188 203.659,157.094 202.958,156.393 201.162,158.188 200.07,157.097 200.074,157.094 199.373,156.393 
	199.369,156.396 199.366,156.393 198.665,157.094 198.668,157.097 197.576,158.188 196.481,157.094 195.78,156.393 193.984,158.188 
	192.893,157.097 192.896,157.094 192.195,156.393 192.191,156.396 192.188,156.393 191.487,157.094 191.49,157.097 190.398,158.188 
	189.304,157.094 188.603,156.393 186.806,158.188 185.715,157.097 185.718,157.094 185.017,156.393 185.014,156.396 185.01,156.393 
	184.309,157.094 184.313,157.097 183.221,158.188 182.126,157.094 181.425,156.393 179.628,158.188 178.537,157.097 
	178.541,157.094 177.839,156.393 177.836,156.396 177.833,156.393 177.131,157.094 177.135,157.097 176.043,158.188 
	174.948,157.094 174.247,156.393 172.451,158.188 171.359,157.097 171.363,157.094 170.662,156.393 170.658,156.396 
	170.655,156.393 169.954,157.094 169.957,157.097 168.865,158.188 167.771,157.094 167.069,156.393 165.273,158.188 
	164.182,157.097 164.185,157.094 163.484,156.393 163.48,156.396 163.477,156.393 162.776,157.094 162.779,157.097 161.688,158.188 
	160.593,157.094 159.892,156.393 158.095,158.188 157.004,157.097 157.007,157.094 156.306,156.393 156.303,156.396 
	156.299,156.393 155.598,157.094 155.602,157.097 154.51,158.188 153.415,157.094 152.714,156.393 150.917,158.188 149.826,157.097 
	149.83,157.094 149.128,156.393 149.125,156.396 149.122,156.393 148.42,157.094 148.424,157.097 147.332,158.188 145.536,156.393 
	144.835,157.094 147.31,159.568 147.332,159.546 147.355,159.568 149.125,157.798 150.895,159.568 150.917,159.546 150.94,159.568 
	152.714,157.795 154.487,159.568 154.51,159.546 154.533,159.568 156.303,157.798 158.073,159.568 158.095,159.546 158.118,159.568 
	159.892,157.795 161.665,159.568 161.688,159.546 161.71,159.568 163.48,157.798 165.25,159.568 165.273,159.546 165.296,159.568 
	167.069,157.795 168.843,159.568 168.865,159.546 168.888,159.568 170.658,157.798 172.428,159.568 172.451,159.546 
	172.474,159.568 174.247,157.795 176.021,159.568 176.043,159.546 176.066,159.568 177.836,157.798 179.606,159.568 
	179.628,159.546 179.651,159.568 181.425,157.795 183.198,159.568 183.221,159.546 183.244,159.568 185.014,157.798 
	186.784,159.568 186.806,159.546 186.829,159.568 188.603,157.795 190.376,159.568 190.398,159.546 190.421,159.568 
	192.191,157.798 193.961,159.568 193.984,159.546 194.007,159.568 195.78,157.795 197.554,159.568 197.576,159.546 197.599,159.568 
	199.369,157.798 201.139,159.568 201.162,159.546 201.185,159.568 202.958,157.795 204.731,159.568 204.754,159.546 
	204.777,159.568 206.547,157.798 208.317,159.568 208.339,159.546 208.362,159.568 210.136,157.795 211.909,159.568 
	211.932,159.546 211.955,159.568 213.725,157.798 215.495,159.568 215.517,159.546 215.54,159.568 217.313,157.795 219.087,159.568 
	219.109,159.546 219.132,159.568 220.902,157.798 222.672,159.568 222.695,159.546 222.718,159.568 224.491,157.795 
	226.265,159.568 226.287,159.546 226.31,159.568 228.08,157.798 229.85,159.568 229.873,159.546 229.896,159.568 231.669,157.795 
	233.442,159.568 233.465,159.546 233.488,159.568 235.258,157.798 237.028,159.568 237.05,159.546 237.073,159.568 238.846,157.795 
	240.62,159.568 240.643,159.546 240.666,159.568 242.436,157.798 244.205,159.568 244.229,159.546 244.25,159.568 246.024,157.795 
	247.798,159.568 247.821,159.546 247.843,159.568 249.614,157.798 251.384,159.568 251.405,159.546 251.429,159.568 
	253.202,157.795 254.976,159.568 254.999,159.546 255.021,159.568 256.792,157.798 "/>
<polygon fill="#ED1F24" stroke="#FFFFFF" stroke-width="0.1417" stroke-miterlimit="10" points="367.358,188.141 368.06,187.44 
	367.992,187.373 367.996,187.369 367.295,186.667 367.291,186.671 367.288,186.667 366.587,187.369 366.59,187.373 365.498,188.463 
	364.404,187.369 363.703,186.667 361.906,188.463 360.814,187.373 360.818,187.369 360.117,186.667 360.113,186.671 360.11,186.667 
	359.409,187.369 359.412,187.373 358.32,188.463 357.227,187.369 356.525,186.667 354.729,188.463 353.637,187.373 353.641,187.369 
	352.939,186.667 352.936,186.671 352.933,186.667 352.231,187.369 352.234,187.373 351.143,188.463 350.049,187.369 
	349.348,186.667 347.551,188.463 346.459,187.373 346.463,187.369 345.762,186.667 345.758,186.671 345.755,186.667 
	345.054,187.369 345.057,187.373 343.965,188.463 342.871,187.369 342.17,186.667 340.373,188.463 339.281,187.373 339.285,187.369 
	338.584,186.667 338.58,186.671 338.577,186.667 337.876,187.369 337.879,187.373 336.787,188.463 334.992,186.667 334.291,187.369 
	336.766,189.843 336.787,189.821 336.811,189.843 338.58,188.074 340.351,189.843 340.373,189.821 340.396,189.843 342.17,188.07 
	343.943,189.843 343.965,189.821 343.988,189.843 345.758,188.074 347.528,189.843 347.551,189.821 347.574,189.843 349.348,188.07 
	351.121,189.843 351.143,189.821 351.166,189.843 352.936,188.074 354.706,189.843 354.729,189.821 354.752,189.843 356.525,188.07 
	358.299,189.843 358.32,189.821 358.344,189.843 360.113,188.074 361.884,189.843 361.906,189.821 361.93,189.843 363.703,188.07 
	365.477,189.843 365.498,189.821 365.521,189.843 367.291,188.074 "/>
<polygon fill="#ED1F24" stroke="#FFFFFF" stroke-width="0.1417" stroke-miterlimit="10" points="202.235,276.785 203.19,275.83 
	202.557,275.197 202.554,275.201 202.55,275.197 201.849,275.898 201.853,275.902 200.761,276.993 199.666,275.898 198.965,275.197 
	197.168,276.993 196.077,275.902 196.081,275.898 195.379,275.197 195.376,275.201 195.373,275.197 194.671,275.898 
	194.675,275.902 193.583,276.993 192.488,275.898 191.787,275.197 189.991,276.993 188.899,275.902 188.903,275.898 
	188.202,275.197 188.198,275.201 188.195,275.197 187.494,275.898 187.497,275.902 186.405,276.993 185.311,275.898 
	184.609,275.197 182.813,276.993 181.722,275.902 181.725,275.898 181.024,275.197 181.021,275.201 181.017,275.197 
	180.316,275.898 180.319,275.902 179.228,276.993 178.133,275.898 177.432,275.197 175.635,276.993 174.544,275.902 
	174.547,275.898 173.846,275.197 173.843,275.201 173.839,275.197 173.138,275.898 173.142,275.902 172.05,276.993 170.955,275.898 
	170.254,275.197 168.458,276.993 167.366,275.902 167.37,275.898 166.668,275.197 166.665,275.201 166.662,275.197 165.96,275.898 
	165.964,275.902 164.872,276.993 163.777,275.898 163.076,275.197 161.28,276.993 160.188,275.902 160.192,275.898 159.491,275.197 
	159.487,275.201 159.484,275.197 158.783,275.898 158.786,275.902 157.694,276.993 156.6,275.898 155.898,275.197 154.102,276.993 
	153.011,275.902 153.014,275.898 152.313,275.197 152.31,275.201 152.306,275.197 151.605,275.898 151.608,275.902 150.517,276.993 
	149.422,275.898 148.721,275.197 146.924,276.993 145.833,275.902 145.836,275.898 145.135,275.197 145.132,275.201 
	145.128,275.197 144.427,275.898 144.431,275.902 143.339,276.993 142.244,275.898 141.543,275.197 139.747,276.993 
	138.655,275.902 138.659,275.898 137.958,275.197 137.954,275.201 137.951,275.197 137.25,275.898 137.253,275.902 136.161,276.993 
	134.365,275.197 133.664,275.898 136.139,278.373 136.161,278.35 136.184,278.373 137.954,276.603 139.724,278.373 139.747,278.35 
	139.77,278.373 141.543,276.599 143.316,278.373 143.339,278.35 143.362,278.373 145.132,276.603 146.902,278.373 146.924,278.35 
	146.947,278.373 148.721,276.599 150.494,278.373 150.517,278.35 150.54,278.373 152.31,276.603 154.08,278.373 154.102,278.35 
	154.125,278.373 155.898,276.599 157.672,278.373 157.694,278.35 157.717,278.373 159.487,276.603 161.257,278.373 161.28,278.35 
	161.303,278.373 163.076,276.599 164.85,278.373 164.872,278.35 164.895,278.373 166.665,276.603 168.435,278.373 168.458,278.35 
	168.48,278.373 170.254,276.599 172.027,278.373 172.05,278.35 172.073,278.373 173.843,276.603 175.613,278.373 175.635,278.35 
	175.658,278.373 177.432,276.599 179.205,278.373 179.228,278.35 179.25,278.373 181.021,276.603 182.791,278.373 182.813,278.35 
	182.836,278.373 184.609,276.599 186.383,278.373 186.405,278.35 186.428,278.373 188.198,276.603 189.968,278.373 189.991,278.35 
	190.014,278.373 191.787,276.599 193.561,278.373 193.583,278.35 193.606,278.373 195.376,276.603 197.146,278.373 197.168,278.35 
	197.191,278.373 198.965,276.599 200.738,278.373 200.761,278.35 200.784,278.373 202.303,276.853 "/>
<polygon fill="#4BB749" stroke="#FFFFFF" stroke-width="0.1417" stroke-miterlimit="10" points="231.571,186.333 230.905,185.667 
	229.109,187.463 228.018,186.373 228.021,186.369 227.32,185.667 227.316,185.671 227.313,185.667 226.612,186.369 226.616,186.373 
	225.524,187.463 224.428,186.369 223.727,185.667 221.931,187.463 220.84,186.373 220.843,186.369 220.142,185.667 220.139,185.671 
	220.135,185.667 219.434,186.369 219.438,186.373 218.346,187.463 217.251,186.369 216.55,185.667 214.753,187.463 213.662,186.373 
	213.666,186.369 212.964,185.667 212.961,185.671 212.958,185.667 212.256,186.369 212.26,186.373 211.168,187.463 210.073,186.369 
	209.372,185.667 207.576,187.463 206.484,186.373 206.488,186.369 205.787,185.667 205.783,185.671 205.78,185.667 205.079,186.369 
	205.082,186.373 203.99,187.463 202.896,186.369 202.194,185.667 200.398,187.463 199.307,186.373 199.31,186.369 198.609,185.667 
	198.605,185.671 198.602,185.667 197.901,186.369 197.904,186.373 196.813,187.463 195.718,186.369 195.017,185.667 193.22,187.463 
	192.129,186.373 192.132,186.369 191.431,185.667 191.428,185.671 191.424,185.667 190.723,186.369 190.727,186.373 
	189.635,187.463 188.54,186.369 187.839,185.667 186.042,187.463 184.951,186.373 184.955,186.369 184.253,185.667 184.25,185.671 
	184.247,185.667 183.545,186.369 183.549,186.373 182.457,187.463 181.362,186.369 180.661,185.667 178.865,187.463 
	177.773,186.373 177.777,186.369 177.076,185.667 177.072,185.671 177.069,185.667 176.368,186.369 176.371,186.373 
	175.279,187.463 174.185,186.369 173.483,185.667 171.687,187.463 170.596,186.373 170.599,186.369 169.898,185.667 
	169.895,185.671 169.891,185.667 169.19,186.369 169.193,186.373 168.102,187.463 167.007,186.369 166.306,185.667 164.509,187.463 
	163.418,186.373 163.421,186.369 162.72,185.667 162.717,185.671 162.713,185.667 162.012,186.369 162.016,186.373 160.924,187.463 
	159.829,186.369 159.128,185.667 157.332,187.463 156.24,186.373 156.244,186.369 155.542,185.667 155.539,185.671 155.536,185.667 
	154.834,186.369 154.838,186.373 153.746,187.463 152.651,186.369 151.95,185.667 150.154,187.463 149.063,186.373 149.066,186.369 
	148.365,185.667 148.361,185.671 148.358,185.667 147.657,186.369 147.66,186.373 146.568,187.463 145.474,186.369 144.772,185.667 
	142.976,187.463 141.885,186.373 141.888,186.369 141.187,185.667 141.184,185.671 141.18,185.667 140.479,186.369 140.482,186.373 
	139.391,187.463 138.296,186.369 137.595,185.667 135.798,187.463 134.707,186.373 134.71,186.369 134.009,185.667 134.006,185.671 
	134.002,185.667 133.301,186.369 133.305,186.373 132.213,187.463 130.417,185.667 129.716,186.369 132.19,188.843 132.213,188.821 
	132.236,188.843 134.006,187.074 135.776,188.843 135.798,188.821 135.821,188.843 137.595,187.07 139.368,188.843 139.391,188.821 
	139.414,188.843 141.184,187.074 142.954,188.843 142.976,188.821 142.999,188.843 144.772,187.07 146.546,188.843 146.568,188.821 
	146.591,188.843 148.361,187.074 150.131,188.843 150.154,188.821 150.177,188.843 151.95,187.07 153.724,188.843 153.746,188.821 
	153.769,188.843 155.539,187.074 157.309,188.843 157.332,188.821 157.354,188.843 159.128,187.07 160.901,188.843 160.924,188.821 
	160.947,188.843 162.717,187.074 164.487,188.843 164.509,188.821 164.532,188.843 166.306,187.07 168.079,188.843 168.102,188.821 
	168.125,188.843 169.895,187.074 171.665,188.843 171.687,188.821 171.71,188.843 173.483,187.07 175.257,188.843 175.279,188.821 
	175.302,188.843 177.072,187.074 178.842,188.843 178.865,188.821 178.888,188.843 180.661,187.07 182.435,188.843 182.457,188.821 
	182.48,188.843 184.25,187.074 186.02,188.843 186.042,188.821 186.065,188.843 187.839,187.07 189.612,188.843 189.635,188.821 
	189.658,188.843 191.428,187.074 193.198,188.843 193.22,188.821 193.243,188.843 195.017,187.07 196.79,188.843 196.813,188.821 
	196.835,188.843 198.605,187.074 200.375,188.843 200.398,188.821 200.421,188.843 202.194,187.07 203.968,188.843 203.99,188.821 
	204.013,188.843 205.783,187.074 207.553,188.843 207.576,188.821 207.599,188.843 209.372,187.07 211.146,188.843 211.168,188.821 
	211.191,188.843 212.961,187.074 214.731,188.843 214.753,188.821 214.776,188.843 216.55,187.07 218.323,188.843 218.346,188.821 
	218.369,188.843 220.139,187.074 221.909,188.843 221.931,188.821 221.954,188.843 223.727,187.07 225.5,188.843 225.524,188.821 
	225.546,188.843 227.316,187.074 229.073,188.831 "/>
<polygon fill="#4BB749" stroke="#FFFFFF" stroke-width="0.1417" stroke-miterlimit="10" points="146.042,306.829 145.346,306.132 
	145.343,306.136 145.339,306.132 144.638,306.833 144.642,306.837 143.55,307.928 142.455,306.833 141.754,306.132 139.958,307.928 
	138.866,306.837 138.87,306.833 138.168,306.132 138.165,306.136 138.162,306.132 137.46,306.833 137.464,306.837 136.372,307.928 
	135.277,306.833 134.576,306.132 132.78,307.928 131.688,306.837 131.692,306.833 130.991,306.132 130.987,306.136 130.984,306.132 
	130.283,306.833 130.286,306.837 129.194,307.928 127.398,306.132 126.697,306.833 129.172,309.308 129.194,309.286 
	129.217,309.308 130.987,307.539 132.757,309.308 132.78,309.286 132.803,309.308 134.576,307.535 136.35,309.308 136.372,309.286 
	136.395,309.308 138.165,307.539 139.935,309.308 139.958,309.286 139.98,309.308 141.754,307.535 143.527,309.308 143.55,309.286 
	143.568,309.303 "/>
<g>
	<g>
		<path fill="none" stroke="#7B7B7B" stroke-width="1.4173" stroke-miterlimit="10" d="M50.155,30.267
			c0,1.559-1.275,2.834-2.834,2.834H36.323c-1.559,0-2.834-1.275-2.834-2.834V12.436c0-1.559,1.275-2.834,2.834-2.834h10.998
			c1.559,0,2.834,1.275,2.834,2.834V30.267z"/>
	</g>
	<g>
		
			<line fill="none" stroke="#7B7B7B" stroke-width="1.4173" stroke-miterlimit="10" x1="33.489" y1="13.438" x2="46.823" y2="13.438"/>
		
			<line fill="none" stroke="#7B7B7B" stroke-width="1.4173" stroke-miterlimit="10" x1="33.489" y1="16.604" x2="46.823" y2="16.604"/>
		
			<line fill="none" stroke="#7B7B7B" stroke-width="1.4173" stroke-miterlimit="10" x1="33.489" y1="29.265" x2="46.823" y2="29.265"/>
		<line fill="none" stroke="#7B7B7B" stroke-width="1.4173" stroke-miterlimit="10" x1="33.489" y1="26.1" x2="46.823" y2="26.1"/>
		
			<line fill="none" stroke="#7B7B7B" stroke-width="1.4173" stroke-miterlimit="10" x1="33.489" y1="22.935" x2="46.823" y2="22.935"/>
		
			<line fill="none" stroke="#7B7B7B" stroke-width="1.4173" stroke-miterlimit="10" x1="33.489" y1="19.769" x2="46.823" y2="19.769"/>
	</g>
	<polygon fill="#235798" points="18.639,10.477 35.889,6.477 35.889,36.227 18.639,32.977 	"/>
	<g>
		<path fill="#FFFFFF" d="M29.231,23.068h0.039l1.358-6.345h1.861l-2.22,9.257H28.5l-1.744-6.11h-0.039l-1.661,5.734h-1.769
			l-2.309-8.25h1.867l1.365,5.707l0.04,0.006l1.782-5.963h1.403L29.231,23.068z"/>
	</g>
</g>
<g>
	<rect x="18.639" y="52.035" fill="#F3F4F8" width="8.75" height="18"/>
	<rect x="29.889" y="52.035" fill="#F3F4F8" width="8.75" height="18"/>
	<rect x="140.472" y="51.035" fill="#F3F4F8" width="18" height="8.75"/>
	<rect x="140.472" y="62.285" fill="#F3F4F8" width="18" height="8.75"/>
	<rect x="52.389" y="52.035" fill="#F3F4F8" width="21" height="18"/>
	<rect x="113.389" y="52.035" fill="#F3F4F8" width="21" height="18"/>
	
		<rect x="83.389" y="52.035" fill="none" stroke="#F3F4F8" stroke-width="2.8346" stroke-miterlimit="10" width="19.25" height="18"/>
	
		<line fill="none" stroke="#F3F4F8" stroke-width="2.8346" stroke-miterlimit="10" x1="88.639" y1="57.285" x2="97.889" y2="57.285"/>
	
		<line fill="none" stroke="#F3F4F8" stroke-width="2.8346" stroke-miterlimit="10" x1="90.639" y1="62.785" x2="97.639" y2="62.785"/>
	
		<line fill="none" stroke="#FFFFFF" stroke-width="2.8346" stroke-miterlimit="10" x1="117.639" y1="58.285" x2="130.139" y2="58.285"/>
	
		<line fill="none" stroke="#FFFFFF" stroke-width="2.8346" stroke-miterlimit="10" x1="117.639" y1="63.785" x2="130.139" y2="63.785"/>
</g>
</svg>
