<?xml version="1.0" encoding="utf-8"?>
<!-- Generator: Adobe Illustrator 15.0.0, SVG Export Plug-In . SVG Version: 6.00 Build 0)  -->
<!DOCTYPE svg PUBLIC "-//W3C//DTD SVG 1.1//EN" "http://www.w3.org/Graphics/SVG/1.1/DTD/svg11.dtd">
<svg version="1.1" id="Layer_1" xmlns="http://www.w3.org/2000/svg" xmlns:xlink="http://www.w3.org/1999/xlink" x="0px" y="0px"
	 width="26.958px" height="107.744px" viewBox="0 0 26.958 107.744" enable-background="new 0 0 26.958 107.744"
	 xml:space="preserve">
<image display="none" overflow="visible" width="28" height="33" xlink:href="9FA67519.jpg"  transform="matrix(0.9999 0 0 0.9999 -2.7847 -1.5313)">
</image>
<g>
	<g>
		<path d="M13.737,2.531c-0.55,0-0.983-0.111-0.962-0.247c0,0,0,0,0-0.128C12.775,0.965,11.81,0,10.619,0S8.462,0.965,8.462,2.156
			c0,0.128,0,0.128,0,0.128C8.483,2.42,8.05,2.531,7.5,2.531H7.087c-0.55,0-1,0.45-1,1v0.875c0,0.55,0.45,1,1,1h7.063
			c0.55,0,1-0.45,1-1V3.531c0-0.55-0.45-1-1-1H13.737z M10.619,2.969c-0.518,0-0.938-0.42-0.938-0.938s0.42-0.938,0.938-0.938
			s0.938,0.42,0.938,0.938S11.136,2.969,10.619,2.969z"/>
	</g>
	<g>
		<path fill="none" stroke="#000000" stroke-width="1.3" stroke-miterlimit="10" d="M4.889,3.656H1.65c-0.55,0-1,0.45-1,1v23.188
			c0,0.55,0.45,1,1,1h17.938c0.55,0,1-0.45,1-1V4.656c0-0.55-0.45-1-1-1h-3.24"/>
	</g>
	<rect x="4.035" y="7.594" width="13.167" height="1.292"/>
	<rect x="4.035" y="11.594" width="13.167" height="1.292"/>
	<rect x="4.035" y="15.594" width="13.167" height="1.292"/>
	<rect x="4.035" y="19.594" width="13.167" height="1.292"/>
	<rect x="4.035" y="23.594" width="13.167" height="1.292"/>
</g>
<g>
	<g>
		<g>
			<path d="M13.737,80.781c-0.55,0-0.983-0.111-0.962-0.247c0,0,0,0,0-0.128c0-1.191-0.965-2.156-2.156-2.156
				s-2.156,0.965-2.156,2.156c0,0.128,0,0.128,0,0.128C8.483,80.67,8.05,80.781,7.5,80.781H7.087c-0.55,0-1,0.45-1,1v0.875
				c0,0.55,0.45,1,1,1h7.063c0.55,0,1-0.45,1-1v-0.875c0-0.55-0.45-1-1-1H13.737z M10.619,81.219c-0.518,0-0.938-0.42-0.938-0.938
				s0.42-0.938,0.938-0.938s0.938,0.42,0.938,0.938S11.136,81.219,10.619,81.219z"/>
		</g>
		<rect x="4.035" y="85.844" width="13.167" height="1.292"/>
		<rect x="4.035" y="89.844" width="13.167" height="1.292"/>
		<rect x="4.035" y="93.844" width="13.167" height="1.292"/>
		<rect x="4.035" y="97.844" width="13.167" height="1.292"/>
		<polygon points="15.555,101.844 4.035,101.844 4.035,103.136 15.235,103.136 		"/>
		<g>
			<path d="M19.938,82.906v13.758l1.3-1.3V82.906c0-0.91-0.74-1.65-1.65-1.65h-3.24v1.3h3.24
				C19.777,82.556,19.938,82.716,19.938,82.906z"/>
			<path d="M19.938,104.779v1.315c0,0.19-0.16,0.35-0.35,0.35H1.65c-0.19,0-0.35-0.16-0.35-0.35V82.906c0-0.19,0.16-0.35,0.35-0.35
				h3.239v-1.3H1.65c-0.91,0-1.65,0.74-1.65,1.65v23.188c0,0.91,0.74,1.65,1.65,1.65h17.938c0.91,0,1.65-0.74,1.65-1.65v-2.615
				L19.938,104.779z"/>
		</g>
	</g>
	<g>
		<g>
			<path d="M26.753,96.407l-2.501-2.501c-0.272-0.272-0.718-0.272-0.99,0l-0.212,0.212l3.492,3.492l0.212-0.212
				C27.026,97.125,27.026,96.68,26.753,96.407z"/>
			<polygon points="22.056,95.112 19.457,97.711 16.178,100.99 19.669,104.481 22.948,101.202 25.547,98.604 25.716,98.434 
				22.225,94.943 			"/>
			<rect x="21.91" y="95.901" transform="matrix(-0.7071 -0.7071 0.7071 -0.7071 -26.4635 181.599)" width="4.938" height="0.759"/>
		</g>
		<path d="M16.12,101.223l-1.084,4.386l4.399-1.07L16.12,101.223z M15.703,104.579l0.693-2.805l2.487,2.487l-2.817,0.686
			L15.703,104.579z"/>
	</g>
</g>
</svg>
