<?xml version="1.0" encoding="utf-8"?>
<!-- Generator: Adobe Illustrator 15.0.0, SVG Export Plug-In . SVG Version: 6.00 Build 0)  -->
<!DOCTYPE svg PUBLIC "-//W3C//DTD SVG 1.1//EN" "http://www.w3.org/Graphics/SVG/1.1/DTD/svg11.dtd">
<svg version="1.1" id="Layer_1" xmlns="http://www.w3.org/2000/svg" xmlns:xlink="http://www.w3.org/1999/xlink" x="0px" y="0px"
	 width="960px" height="108px" viewBox="0 0 960 108" enable-background="new 0 0 960 108" xml:space="preserve">
<rect fill="#3C82B5" width="960" height="108"/>
<g>
	<rect x="685.819" y="22.048" fill="#F15F2C" stroke="#FFFFFF" stroke-width="2" width="252.181" height="40.569"/>
</g>
<text transform="matrix(1 0 0 1 706.3745 48.457)" fill="#FFFFFF" font-family="'Calibri-Bold'" font-size="16.7318">GET A PROOFREADING QUOTE</text>
<text transform="matrix(1 0 0 1 21.001 60.0649)" fill="#FFFFFF" font-family="'ChunkFive-Roman'" font-size="51.2522">Need proofreading?</text>
<text transform="matrix(1 0 0 1 20.9995 89.3623)" fill="#FFFFFF" font-family="'Calibri'" font-size="23.1384">Our partner specializes in  professional proofreading documents.</text>
<g>
	<path fill="#FFFFFF" d="M765.131,92.22l0.203-2.642l0.277-5.856l0.135-4.25c0.005-0.386,0.009-0.774,0.009-1.169
		c0-0.289-0.004-0.727-0.009-1.307c0.948,0.018,1.724,0.024,2.318,0.024c0.475,0,1.134-0.012,1.987-0.033
		c0.843-0.023,1.518-0.035,2.016-0.035c1.026,0,1.78,0.074,2.261,0.224c0.515,0.164,0.965,0.42,1.351,0.769
		c0.386,0.351,0.683,0.769,0.88,1.263c0.223,0.547,0.337,1.142,0.337,1.77c0,0.96-0.242,1.832-0.721,2.617
		c-0.479,0.784-1.144,1.368-1.991,1.757c-0.845,0.385-1.785,0.577-2.818,0.577c-0.508,0-1.046-0.051-1.618-0.154
		c-0.164-0.774-0.352-1.499-0.557-2.176c0.456,0.098,0.915,0.146,1.367,0.146c0.613,0,1.148-0.096,1.602-0.28
		c0.454-0.187,0.812-0.487,1.079-0.908c0.266-0.42,0.4-0.896,0.4-1.422c0-0.313-0.057-0.598-0.169-0.862
		c-0.107-0.258-0.273-0.466-0.479-0.622c-0.215-0.156-0.448-0.26-0.703-0.317c-0.256-0.055-0.622-0.085-1.096-0.085
		c-0.416,0-0.833,0.01-1.258,0.023c-0.423,0.016-0.796,0.021-1.122,0.021c-0.091,1.458-0.156,2.854-0.199,4.183l-0.134,4.257
		c-0.043,1.513-0.066,2.619-0.066,3.326c0,0.267,0.003,0.656,0.01,1.161l-1.617-0.022C766.598,92.198,766.04,92.204,765.131,92.22z"
		/>
	<path fill="#FFFFFF" d="M778.345,92.22l0.322-5.297l0.088-3.08c0.017-0.63,0.025-1.266,0.025-1.905c0-0.11-0.009-0.464-0.025-1.06
		c0.692,0.015,1.2,0.021,1.531,0.021c0.378,0,0.878-0.006,1.503-0.021l-0.057,1.571c0.284-0.399,0.526-0.697,0.726-0.895
		c0.201-0.198,0.426-0.368,0.677-0.51c0.247-0.142,0.523-0.249,0.829-0.323c0.307-0.073,0.616-0.109,0.937-0.109
		c0.299,0,0.604,0.036,0.913,0.109c0,0.693,0.034,1.572,0.103,2.629c-0.441-0.115-0.839-0.174-1.193-0.174
		c-0.431,0-0.813,0.063-1.146,0.194c-0.327,0.128-0.627,0.328-0.89,0.589c-0.262,0.266-0.484,0.591-0.652,0.978
		c-0.143,0.313-0.246,0.717-0.313,1.216c-0.059,0.384-0.104,1.045-0.146,1.983c-0.039,0.938-0.058,1.857-0.058,2.764
		c0,0.35,0.01,0.789,0.03,1.318c-0.567-0.016-1.079-0.022-1.553-0.022C779.536,92.198,778.985,92.204,778.345,92.22z"/>
	<path fill="#FFFFFF" d="M793.32,80.614c0.854,0,1.674,0.126,2.459,0.382c0.785,0.257,1.45,0.637,1.996,1.14
		c0.547,0.502,0.958,1.115,1.232,1.836c0.274,0.727,0.412,1.491,0.412,2.292c0,0.849-0.144,1.666-0.436,2.453
		c-0.29,0.789-0.71,1.47-1.26,2.047s-1.235,1.007-2.055,1.294c-0.824,0.287-1.699,0.428-2.627,0.428
		c-0.862,0-1.685-0.126-2.458-0.383c-0.778-0.259-1.442-0.643-1.991-1.154c-0.555-0.513-0.971-1.14-1.257-1.873
		c-0.285-0.736-0.429-1.504-0.429-2.308c0-0.818,0.131-1.6,0.394-2.346c0.256-0.739,0.663-1.405,1.218-1.985
		c0.557-0.575,1.264-1.023,2.124-1.346C791.506,80.771,792.401,80.614,793.32,80.614z M793.32,82.907
		c-0.646,0-1.221,0.161-1.728,0.475c-0.506,0.317-0.884,0.789-1.134,1.411c-0.25,0.625-0.372,1.304-0.372,2.041
		c0,0.647,0.102,1.223,0.306,1.729c0.202,0.502,0.535,0.913,1,1.225c0.461,0.313,1.012,0.469,1.65,0.469
		c0.654,0,1.223-0.16,1.715-0.484c0.492-0.324,0.863-0.801,1.113-1.426c0.246-0.631,0.37-1.324,0.37-2.082
		c0-0.617-0.094-1.176-0.289-1.683c-0.192-0.506-0.518-0.912-0.974-1.214C794.527,83.062,793.97,82.907,793.32,82.907z"/>
	<path fill="#FFFFFF" d="M807.427,80.614c0.854,0,1.67,0.126,2.457,0.382c0.784,0.257,1.448,0.637,1.994,1.14
		c0.547,0.502,0.956,1.115,1.235,1.836c0.271,0.727,0.41,1.491,0.41,2.292c0,0.849-0.146,1.666-0.434,2.453
		c-0.293,0.789-0.711,1.47-1.261,2.047c-0.549,0.577-1.237,1.007-2.059,1.294c-0.819,0.287-1.694,0.428-2.624,0.428
		c-0.861,0-1.685-0.126-2.461-0.383c-0.776-0.259-1.438-0.643-1.99-1.154c-0.547-0.513-0.966-1.14-1.254-1.873
		c-0.284-0.736-0.428-1.504-0.428-2.308c0-0.818,0.128-1.6,0.39-2.346c0.263-0.739,0.668-1.405,1.223-1.985
		c0.553-0.575,1.26-1.023,2.12-1.346C805.612,80.771,806.505,80.614,807.427,80.614z M807.425,82.907
		c-0.643,0-1.221,0.161-1.729,0.475c-0.505,0.317-0.882,0.789-1.135,1.411c-0.247,0.625-0.372,1.304-0.372,2.041
		c0,0.647,0.103,1.223,0.308,1.729c0.203,0.502,0.536,0.913,1.001,1.225c0.461,0.313,1.011,0.469,1.648,0.469
		c0.654,0,1.222-0.16,1.719-0.484c0.491-0.324,0.862-0.801,1.107-1.426c0.249-0.631,0.372-1.324,0.372-2.082
		c0-0.617-0.095-1.176-0.289-1.683c-0.192-0.506-0.514-0.912-0.973-1.214C808.631,83.062,808.077,82.907,807.425,82.907z"/>
	<path fill="#FFFFFF" d="M815.841,92.22l0.136-1.84l0.336-7.249h-1.383c0.019-0.224,0.047-0.587,0.07-1.086
		c0.026-0.5,0.045-0.869,0.053-1.098h1.516v-0.446c0-0.795,0.031-1.404,0.1-1.825c0.067-0.42,0.192-0.762,0.373-1.033
		c0.185-0.266,0.438-0.497,0.77-0.693c0.334-0.196,0.692-0.328,1.087-0.402c0.396-0.07,0.8-0.105,1.218-0.105
		c0.848,0,1.743,0.117,2.686,0.356c0.023,0.833,0.063,1.545,0.123,2.141c-0.712-0.252-1.367-0.381-1.95-0.381
		c-0.229,0-0.439,0.03-0.637,0.086c-0.193,0.054-0.35,0.133-0.475,0.228c-0.123,0.095-0.223,0.223-0.307,0.377
		c-0.082,0.16-0.14,0.34-0.166,0.551c-0.031,0.214-0.045,0.456-0.045,0.732v0.414h2.843c-0.043,0.512-0.087,1.239-0.136,2.184
		h-2.673c-0.144,2.958-0.254,5.988-0.329,9.089c-0.676-0.016-1.211-0.022-1.612-0.022C817.028,92.198,816.495,92.204,815.841,92.22z
		"/>
	<path fill="#FFFFFF" d="M823.271,92.22l0.321-5.297l0.09-3.08c0.015-0.63,0.021-1.266,0.021-1.905c0-0.11-0.007-0.464-0.021-1.06
		c0.692,0.015,1.201,0.021,1.527,0.021c0.382,0,0.882-0.006,1.507-0.021l-0.056,1.571c0.28-0.399,0.522-0.697,0.727-0.895
		c0.198-0.198,0.423-0.368,0.671-0.51c0.251-0.142,0.529-0.249,0.832-0.323c0.305-0.073,0.618-0.109,0.935-0.109
		c0.3,0,0.606,0.036,0.916,0.109c0,0.693,0.035,1.572,0.104,2.629c-0.439-0.115-0.838-0.174-1.197-0.174
		c-0.432,0-0.811,0.063-1.143,0.194c-0.328,0.128-0.628,0.328-0.892,0.589c-0.263,0.266-0.481,0.591-0.653,0.978
		c-0.14,0.313-0.243,0.717-0.312,1.216c-0.06,0.384-0.105,1.045-0.146,1.983c-0.038,0.938-0.06,1.857-0.06,2.764
		c0,0.35,0.01,0.789,0.034,1.318c-0.569-0.016-1.086-0.022-1.554-0.022C824.462,92.198,823.912,92.204,823.271,92.22z"/>
	<path fill="#FFFFFF" d="M842.275,89.689c-0.102,0.437-0.238,1.224-0.416,2.363c-0.805,0.17-1.479,0.286-2.031,0.344
		c-0.551,0.062-1.1,0.09-1.66,0.09c-0.974,0-1.848-0.097-2.612-0.287c-0.772-0.196-1.445-0.551-2.027-1.064
		c-0.579-0.517-1.007-1.154-1.282-1.901c-0.273-0.75-0.409-1.537-0.409-2.361c0-0.916,0.155-1.798,0.478-2.656
		c0.32-0.86,0.767-1.56,1.343-2.106c0.574-0.542,1.231-0.933,1.967-1.158c0.736-0.227,1.509-0.338,2.311-0.338
		c0.758,0,1.48,0.091,2.161,0.28c0.684,0.192,1.258,0.502,1.724,0.933c0.466,0.429,0.823,0.945,1.072,1.553
		c0.247,0.603,0.372,1.276,0.372,2.019c0,0.351-0.037,0.707-0.111,1.079l-8.174,0.012c-0.015,0.273-0.021,0.492-0.021,0.656
		c0,0.497,0.083,0.957,0.256,1.372c0.172,0.418,0.42,0.77,0.746,1.062c0.327,0.287,0.721,0.5,1.174,0.638
		c0.451,0.139,0.898,0.207,1.335,0.207c0.513,0,1.072-0.056,1.67-0.167C840.733,90.145,841.445,89.954,842.275,89.689z
		 M835.068,85.183l5.22,0.013c0-0.355-0.011-0.619-0.033-0.792c-0.025-0.17-0.074-0.362-0.153-0.583
		c-0.078-0.215-0.181-0.41-0.319-0.577c-0.132-0.162-0.285-0.303-0.466-0.416c-0.18-0.11-0.386-0.195-0.621-0.253
		c-0.233-0.063-0.482-0.088-0.751-0.088c-0.31,0-0.615,0.047-0.908,0.145c-0.294,0.094-0.561,0.233-0.808,0.418
		c-0.246,0.187-0.445,0.393-0.602,0.622c-0.147,0.232-0.264,0.452-0.337,0.663C835.213,84.546,835.142,84.828,835.068,85.183z"/>
	<path fill="#FFFFFF" d="M845.806,83.367c0.103-0.537,0.168-0.91,0.193-1.129c0.027-0.214,0.071-0.54,0.139-0.981
		c1.015-0.235,1.904-0.403,2.678-0.5c0.772-0.097,1.521-0.142,2.24-0.142c0.818,0,1.568,0.091,2.254,0.28
		c0.683,0.192,1.221,0.494,1.604,0.912c0.389,0.414,0.582,1.014,0.582,1.794c0,0.424-0.062,1.506-0.179,3.241
		c-0.119,1.734-0.186,3.528-0.21,5.38c-0.566-0.016-1.086-0.022-1.561-0.022c-0.456,0-0.989,0.006-1.598,0.022
		c0.099-0.901,0.179-1.942,0.237-3.123l0.146-2.775c-0.281,0.187-0.496,0.317-0.645,0.389c-0.152,0.078-0.319,0.142-0.506,0.209
		c-0.185,0.061-0.512,0.157-0.98,0.286c-0.468,0.13-0.846,0.244-1.13,0.342c-0.282,0.094-0.535,0.205-0.763,0.33
		c-0.228,0.122-0.419,0.259-0.574,0.41c-0.156,0.153-0.27,0.313-0.339,0.479c-0.073,0.17-0.108,0.351-0.108,0.541
		c0,0.313,0.093,0.583,0.274,0.811s0.412,0.385,0.688,0.474c0.271,0.089,0.598,0.132,0.968,0.132c0.239,0,0.488-0.016,0.754-0.054
		c0.262-0.036,0.621-0.131,1.066-0.281c-0.16,0.424-0.343,1.059-0.55,1.895c-0.529,0.09-0.945,0.146-1.259,0.167
		c-0.313,0.026-0.603,0.036-0.869,0.036c-0.937,0-1.705-0.122-2.309-0.378c-0.602-0.252-1.046-0.655-1.331-1.206
		c-0.289-0.55-0.431-1.103-0.431-1.659c0-0.319,0.054-0.638,0.167-0.952c0.11-0.309,0.274-0.595,0.491-0.855
		c0.215-0.263,0.496-0.512,0.834-0.754c0.346-0.242,0.836-0.473,1.488-0.702c0.645-0.228,1.496-0.456,2.563-0.685
		c0.285-0.06,0.577-0.132,0.881-0.219c0.306-0.084,0.548-0.167,0.732-0.25c0.182-0.083,0.339-0.187,0.474-0.319
		c0.137-0.128,0.231-0.266,0.296-0.408c0.061-0.139,0.096-0.286,0.096-0.432c0-0.289-0.096-0.536-0.288-0.736
		c-0.188-0.203-0.435-0.34-0.733-0.42c-0.3-0.079-0.635-0.117-1-0.117C848.936,82.395,847.441,82.718,845.806,83.367z"/>
	<path fill="#FFFFFF" d="M869.426,92.22c-0.617-0.016-1.1-0.022-1.44-0.022c-0.371,0-0.888,0.006-1.54,0.022l0.099-1.942
		c-0.327,0.424-0.607,0.751-0.843,0.983c-0.232,0.229-0.523,0.441-0.87,0.64c-0.344,0.196-0.72,0.343-1.12,0.44
		c-0.4,0.096-0.816,0.145-1.247,0.145c-0.716,0-1.385-0.131-2.008-0.39c-0.624-0.261-1.155-0.625-1.595-1.098
		c-0.439-0.472-0.76-1.032-0.969-1.683c-0.208-0.65-0.312-1.33-0.312-2.035c0-0.973,0.183-1.925,0.556-2.849
		c0.373-0.929,0.883-1.675,1.527-2.246c0.646-0.573,1.378-0.981,2.194-1.215c0.818-0.239,1.692-0.356,2.629-0.356
		c0.679,0,1.441,0.061,2.292,0.188c0.058-0.965,0.086-1.981,0.086-3.044v-0.761c0.696,0.018,1.234,0.024,1.606,0.024
		c0.484,0,1.025-0.007,1.633-0.024c-0.164,1.892-0.32,4.46-0.465,7.714C869.497,87.959,869.426,90.466,869.426,92.22z
		 M866.668,82.919c-0.556-0.148-1.093-0.224-1.604-0.224c-0.588,0-1.15,0.083-1.685,0.245c-0.534,0.165-1.008,0.444-1.422,0.839
		c-0.411,0.394-0.732,0.897-0.954,1.516c-0.224,0.616-0.334,1.213-0.334,1.783c0,0.574,0.1,1.099,0.306,1.573
		c0.204,0.476,0.523,0.852,0.954,1.125c0.432,0.277,0.919,0.413,1.459,0.413c0.411,0,0.781-0.071,1.117-0.217
		c0.333-0.146,0.638-0.368,0.914-0.669c0.273-0.299,0.507-0.688,0.699-1.165c0.186-0.474,0.323-1.108,0.405-1.896
		C866.574,85.662,866.623,84.554,866.668,82.919z"/>
	<path fill="#FFFFFF" d="M872.177,92.22c0.114-1.117,0.19-2.05,0.238-2.801c0.074-1.187,0.141-2.56,0.197-4.113
		c0.06-1.554,0.096-3.031,0.12-4.428c0.721,0.015,1.268,0.021,1.628,0.021c0.334,0,0.87-0.006,1.617-0.021
		c-0.098,1.294-0.182,2.53-0.242,3.702c-0.06,1.175-0.107,2.519-0.132,4.036c-0.032,1.519-0.046,2.721-0.046,3.604
		c-0.677-0.016-1.222-0.022-1.628-0.022C873.542,92.198,872.955,92.204,872.177,92.22z M872.788,78.939
		c0.03-0.764,0.046-1.354,0.046-1.763v-0.355c0.677,0.013,1.226,0.021,1.648,0.021c0.58,0,1.121-0.008,1.617-0.021
		c-0.021,0.184-0.037,0.396-0.043,0.634L876,78.939c-0.566-0.015-1.086-0.021-1.56-0.021
		C873.961,78.918,873.412,78.924,872.788,78.939z"/>
	<path fill="#FFFFFF" d="M878.186,92.22c0.17-1.689,0.312-3.584,0.429-5.688c0.114-2.103,0.178-3.988,0.193-5.653
		c0.685,0.015,1.232,0.021,1.641,0.021c0.483,0,0.994-0.006,1.541-0.021l-0.125,1.896c0.233-0.327,0.433-0.589,0.607-0.78
		c0.176-0.194,0.397-0.384,0.668-0.571c0.274-0.184,0.561-0.333,0.871-0.446c0.307-0.111,0.654-0.197,1.039-0.266
		c0.381-0.064,0.783-0.098,1.197-0.098c0.662,0,1.3,0.081,1.9,0.247c0.608,0.17,1.098,0.435,1.467,0.798
		c0.372,0.365,0.616,0.762,0.735,1.195c0.12,0.431,0.181,0.886,0.181,1.371c0,0.197-0.01,0.518-0.03,0.958l-0.233,4.873
		c-0.027,0.675-0.049,1.397-0.06,2.165c-0.582-0.016-1.086-0.022-1.503-0.022c-0.566,0-1.136,0.006-1.71,0.022
		c0.063-0.647,0.136-1.775,0.225-3.387c0.089-1.607,0.133-2.674,0.133-3.194c0-0.587-0.093-1.059-0.278-1.415
		c-0.182-0.355-0.471-0.63-0.862-0.815c-0.389-0.188-0.812-0.279-1.262-0.279c-0.448,0-0.86,0.087-1.251,0.258
		c-0.387,0.171-0.723,0.42-1.002,0.745c-0.295,0.336-0.527,0.748-0.688,1.24c-0.173,0.519-0.302,1.376-0.381,2.575
		c-0.075,1.063-0.136,2.487-0.178,4.271c-0.576-0.016-1.095-0.022-1.557-0.022C879.424,92.198,878.859,92.204,878.186,92.22z"/>
	<path fill="#FFFFFF" d="M893.687,94.572c1.672,0.551,3.122,0.828,4.348,0.828c0.467,0,0.91-0.06,1.327-0.178
		c0.415-0.112,0.767-0.28,1.047-0.499c0.282-0.217,0.503-0.514,0.659-0.892c0.155-0.372,0.257-0.806,0.313-1.299
		c0.051-0.493,0.093-1.242,0.121-2.244c-0.288,0.396-0.549,0.702-0.777,0.92c-0.234,0.222-0.51,0.418-0.831,0.593
		c-0.324,0.172-0.699,0.317-1.132,0.423c-0.432,0.109-0.889,0.161-1.361,0.161c-0.652,0-1.272-0.104-1.863-0.308
		c-0.588-0.201-1.108-0.524-1.566-0.961c-0.459-0.438-0.804-0.993-1.044-1.658c-0.233-0.663-0.354-1.358-0.354-2.078
		c0-1.035,0.195-2.011,0.587-2.933c0.389-0.919,0.962-1.681,1.716-2.275c0.751-0.597,1.563-1.005,2.421-1.226
		c0.856-0.225,1.81-0.333,2.86-0.333c0.577,0,1.235,0.034,1.974,0.101c0.73,0.074,1.708,0.218,2.92,0.43l-0.254,3.534l-0.237,4.424
		l-0.09,4c-0.021,0.453-0.078,0.89-0.167,1.309c-0.089,0.42-0.229,0.8-0.422,1.14c-0.197,0.336-0.439,0.636-0.739,0.895
		c-0.298,0.26-0.634,0.468-1.006,0.627c-0.379,0.162-0.843,0.291-1.395,0.4c-0.556,0.102-1.149,0.153-1.779,0.153
		c-0.677,0-1.448-0.044-2.309-0.132c-0.862-0.089-1.804-0.26-2.819-0.502L893.687,94.572z M901.829,83.11
		c-0.645-0.135-1.247-0.203-1.797-0.203c-0.966,0-1.768,0.18-2.397,0.532c-0.634,0.353-1.119,0.871-1.46,1.549
		c-0.345,0.674-0.515,1.393-0.515,2.155c0,0.557,0.105,1.077,0.313,1.556c0.206,0.48,0.532,0.844,0.976,1.089
		c0.442,0.248,0.934,0.371,1.467,0.371c0.378,0,0.733-0.063,1.064-0.181c0.333-0.119,0.634-0.302,0.896-0.546
		c0.27-0.248,0.507-0.554,0.712-0.918c0.204-0.362,0.347-0.773,0.434-1.232c0.084-0.458,0.149-1.033,0.195-1.722
		C901.761,84.871,901.798,84.056,901.829,83.11z"/>
	<path fill="#FFFFFF" d="M907.502,92.22l0.204-2.642l0.273-5.856l0.135-4.25c0.008-0.386,0.012-0.774,0.012-1.169
		c0-0.289-0.004-0.727-0.012-1.307c0.954,0.018,1.727,0.024,2.32,0.024c0.478,0,1.136-0.012,1.984-0.033
		c0.849-0.023,1.52-0.035,2.015-0.035c1.029,0,1.785,0.074,2.265,0.224c0.514,0.164,0.965,0.42,1.35,0.769
		c0.389,0.351,0.684,0.769,0.881,1.263c0.225,0.547,0.338,1.142,0.338,1.77c0,0.96-0.242,1.832-0.719,2.617
		c-0.481,0.784-1.145,1.368-1.991,1.757c-0.848,0.385-1.789,0.577-2.82,0.577c-0.506,0-1.05-0.051-1.621-0.154
		c-0.162-0.774-0.349-1.499-0.552-2.176c0.458,0.098,0.916,0.146,1.365,0.146c0.615,0,1.15-0.096,1.602-0.28
		c0.449-0.187,0.812-0.487,1.08-0.908c0.263-0.42,0.398-0.896,0.398-1.422c0-0.313-0.055-0.598-0.168-0.862
		c-0.109-0.258-0.271-0.466-0.485-0.622c-0.21-0.156-0.442-0.26-0.697-0.317c-0.258-0.055-0.622-0.085-1.096-0.085
		c-0.418,0-0.837,0.01-1.258,0.023c-0.423,0.016-0.797,0.021-1.122,0.021c-0.092,1.458-0.159,2.854-0.201,4.183l-0.133,4.257
		c-0.043,1.513-0.067,2.619-0.067,3.326c0,0.267,0.004,0.656,0.015,1.161l-1.621-0.022C908.968,92.198,908.41,92.204,907.502,92.22z
		"/>
	<path fill="#FFFFFF" d="M921.584,83.367c0.107-0.537,0.168-0.91,0.197-1.129c0.023-0.214,0.074-0.54,0.139-0.981
		c1.011-0.235,1.901-0.403,2.673-0.5c0.773-0.097,1.521-0.142,2.243-0.142c0.816,0,1.568,0.091,2.254,0.28
		c0.685,0.192,1.216,0.494,1.604,0.912c0.387,0.414,0.583,1.014,0.583,1.794c0,0.424-0.064,1.506-0.181,3.241
		c-0.118,1.734-0.19,3.528-0.211,5.38c-0.563-0.016-1.085-0.022-1.56-0.022c-0.459,0-0.987,0.006-1.598,0.022
		c0.1-0.901,0.176-1.942,0.237-3.123l0.146-2.775c-0.281,0.187-0.497,0.317-0.646,0.389c-0.15,0.078-0.313,0.142-0.503,0.209
		c-0.185,0.061-0.513,0.157-0.982,0.286c-0.468,0.13-0.843,0.244-1.126,0.342c-0.284,0.094-0.538,0.205-0.767,0.33
		c-0.224,0.122-0.416,0.259-0.573,0.41c-0.155,0.153-0.269,0.313-0.341,0.479c-0.07,0.17-0.108,0.351-0.108,0.541
		c0,0.313,0.094,0.583,0.275,0.811c0.183,0.228,0.413,0.385,0.688,0.474c0.271,0.089,0.598,0.132,0.967,0.132
		c0.239,0,0.489-0.016,0.755-0.054c0.264-0.036,0.616-0.131,1.065-0.281c-0.159,0.424-0.34,1.059-0.549,1.895
		c-0.526,0.09-0.947,0.146-1.258,0.167c-0.314,0.026-0.604,0.036-0.871,0.036c-0.937,0-1.705-0.122-2.307-0.378
		c-0.603-0.252-1.047-0.655-1.333-1.206c-0.287-0.55-0.434-1.103-0.434-1.659c0-0.319,0.06-0.638,0.172-0.952
		c0.109-0.309,0.275-0.595,0.49-0.855c0.216-0.263,0.495-0.512,0.838-0.754c0.338-0.242,0.835-0.473,1.483-0.702
		c0.648-0.228,1.502-0.456,2.564-0.685c0.285-0.06,0.579-0.132,0.883-0.219c0.306-0.084,0.55-0.167,0.729-0.25
		c0.184-0.083,0.342-0.187,0.478-0.319c0.131-0.128,0.231-0.266,0.293-0.408c0.062-0.139,0.097-0.286,0.097-0.432
		c0-0.289-0.097-0.536-0.286-0.736c-0.189-0.203-0.436-0.34-0.736-0.42c-0.304-0.079-0.636-0.117-1.001-0.117
		C924.717,82.395,923.22,82.718,921.584,83.367z"/>
	<path fill="#FFFFFF" d="M933.684,92.22c0.108-1.257,0.245-3.515,0.403-6.775c0.161-3.261,0.262-6.076,0.297-8.449
		c0.771,0.018,1.323,0.024,1.651,0.024c0.437,0,0.973-0.007,1.605-0.024l-0.265,4.072l-0.389,9.077l-0.044,2.075
		c-0.612-0.016-1.13-0.022-1.554-0.022C935.25,92.198,934.681,92.204,933.684,92.22z"/>
</g>
<g>
	<g>
		<g>
			<path fill="#F1602D" d="M563.998,10.241c-1.65,0-3-0.771-3-1.714c0-0.943-1.35-1.715-3-1.715h-0.855c-1.65,0-3,0.771-3,1.715
				c0,0.943-1.35,1.714-3,1.714h-0.691c-1.65,0-3,1.35-3,3v1.248c0,1.65,1.35,3,3,3h14.236c1.65,0,3-1.35,3-3v-1.248
				c0-1.65-1.35-3-3-3H563.998z M559.994,10.938c-0.443,0.199-1.535,0.362-2.426,0.362c-0.889,0-1.98-0.163-2.426-0.362
				c0,0,0,0,0-0.446c0-0.446,0-0.446,0-0.446c0.445-0.2,1.537-0.363,2.426-0.363c0.891,0,1.982,0.163,2.426,0.363c0,0,0,0,0,0.446
				C559.994,10.938,559.994,10.938,559.994,10.938z"/>
		</g>
	</g>
	<path fill="#FFFFFF" d="M574.156,25.628c0,0.8-0.65,1.449-1.451,1.449h-30.105c-0.801,0-1.451-0.649-1.451-1.449l0,0
		c0-0.8,0.65-1.449,1.451-1.449h30.105C573.505,24.18,574.156,24.828,574.156,25.628L574.156,25.628z"/>
	<path fill="#FFFFFF" d="M574.156,32.319c0,0.8-0.65,1.449-1.451,1.449h-30.105c-0.801,0-1.451-0.649-1.451-1.449l0,0
		c0-0.801,0.65-1.449,1.451-1.449h30.105C573.505,30.87,574.156,31.519,574.156,32.319L574.156,32.319z"/>
	<path fill="#FFFFFF" d="M574.156,39.01c0,0.8-0.65,1.449-1.451,1.449h-30.105c-0.801,0-1.451-0.649-1.451-1.449l0,0
		c0-0.802,0.65-1.45,1.451-1.45h30.105C573.505,37.56,574.156,38.208,574.156,39.01L574.156,39.01z"/>
	<path fill="#FFFFFF" d="M574.156,45.7c0,0.801-0.65,1.45-1.451,1.45h-30.105c-0.801,0-1.451-0.649-1.451-1.45l0,0
		c0-0.8,0.65-1.45,1.451-1.45h30.105C573.505,44.25,574.156,44.9,574.156,45.7L574.156,45.7z"/>
	<path fill="#FFFFFF" d="M574.156,59.081c0,0.801-0.65,1.45-1.451,1.45h-30.105c-0.801,0-1.451-0.649-1.451-1.45l0,0
		c0-0.8,0.65-1.449,1.451-1.449h30.105C573.505,57.632,574.156,58.281,574.156,59.081L574.156,59.081z"/>
	<g>
		<path fill="#FFFFFF" d="M578.818,16.596v23.863l3.346-1.775V16.596c0-2.397-1.951-4.349-4.35-4.349h-7.703v3.346h7.703
			C578.357,15.593,578.818,16.053,578.818,16.596z"/>
		<path fill="#FFFFFF" d="M578.818,57.26v9.181c0,0.545-0.461,1.004-1.004,1.004h-40.488c-0.545,0-1.004-0.459-1.004-1.004V16.596
			c0-0.543,0.459-1.003,1.004-1.003h7.701v-3.346h-7.701c-2.398,0-4.35,1.951-4.35,4.349V66.44c0,2.398,1.951,4.35,4.35,4.35h40.488
			c2.398,0,4.35-1.951,4.35-4.35v-9.096L578.818,57.26z"/>
	</g>
	<g>
		
			<rect x="591.049" y="23.123" transform="matrix(0.482 0.8762 -0.8762 0.482 344.7979 -503.3624)" fill="#EAD6D0" width="14.082" height="33.581"/>
		<path fill="#F1602D" d="M610.941,24.924l6.688,12.16l4.865-2.675c1.424-0.783,1.943-2.578,1.162-4l-3.852-7
			c-0.783-1.422-2.578-1.943-4-1.161L610.941,24.924z"/>
		<path fill="#FFFFFF" d="M578.457,45.275l4.557,8.282l-9.451-0.195L578.457,45.275 M578.511,42.599l-7.295,12.053l14.084,0.29
			L578.511,42.599L578.511,42.599z"/>
		<polygon fill="#FFFFFF" points="577.771,54.787 571.216,54.652 574.611,49.044 		"/>
	</g>
	<path fill="#FFFFFF" d="M570.871,50.941h-28.271c-0.801,0-1.451,0.65-1.451,1.45c0,0.801,0.65,1.45,1.451,1.45h26.516
		L570.871,50.941z"/>
</g>
</svg>
