<?xml version="1.0" encoding="utf-8"?>
<!-- Generator: Adobe Illustrator 15.0.0, SVG Export Plug-In . SVG Version: 6.00 Build 0)  -->
<!DOCTYPE svg PUBLIC "-//W3C//DTD SVG 1.1//EN" "http://www.w3.org/Graphics/SVG/1.1/DTD/svg11.dtd">
<svg version="1.1" id="Layer_1" xmlns="http://www.w3.org/2000/svg" xmlns:xlink="http://www.w3.org/1999/xlink" x="0px" y="0px"
	 width="20.831px" height="20.831px" viewBox="0 0 20.831 20.831" enable-background="new 0 0 20.831 20.831" xml:space="preserve">
<g>
	<path fill="#FFFEFE" d="M10.416,2c4.64,0,8.415,3.775,8.415,8.415c0,4.641-3.775,8.416-8.415,8.416S2,15.056,2,10.415
		C2,5.775,5.775,2,10.416,2 M10.416,0C4.663,0,0,4.663,0,10.415c0,5.753,4.663,10.416,10.416,10.416
		c5.752,0,10.415-4.663,10.415-10.416C20.831,4.663,16.167,0,10.416,0L10.416,0z"/>
</g>
<polygon fill="#FFFEFE" points="8.289,6.998 14.208,10.416 8.289,13.833 "/>
</svg>
